<svg xmlns="http://www.w3.org/2000/svg" fill="none" viewBox="0 0 200 200" height="200" width="200">
  
  <circle fill="#0F172A" r="92" cy="100" cx="100"></circle>
  <circle fill="#1E2937" r="72" cy="100" cx="100"></circle>
  
  
  <path fill="#22D3EE" d="M75 65C75 58.5 80.5 53 87 53H113C119.5 53 125 58.5 125 65V135C125 141.5 119.5 147 113 147H87C80.5 147 75 141.5 75 135V65Z"></path>
  <path stroke-linecap="round" stroke-width="6" stroke="#0F172A" d="M85 70H115"></path>
  <path stroke-linecap="round" stroke-width="6" stroke="#0F172A" d="M85 130H115"></path>
  
  
  <path fill="#EF4444" d="M100 82L115 90V115C115 125 108 132 100 135C92 132 85 125 85 115V90L100 82Z"></path>
  <path fill-opacity="0.9" fill="#F87171" d="M100 82L115 90V115C115 125 108 132 100 135C92 132 85 125 85 115V90L100 82Z"></path>
  
  
  <circle fill="#0F172A" r="5" cy="105" cx="100"></circle>
  <rect fill="#0F172A" rx="1" height="12" width="6" y="88" x="97"></rect>
</svg>
